<svg width="20" height="20" viewBox="0 0 20 20" fill="none" xmlns="http://www.w3.org/2000/svg">
<path d="M8.33464 3.74999V15C8.33464 15.9 7.96796 16.725 7.38462 17.325L7.35131 17.3583C7.27631 17.4333 7.19298 17.5083 7.11798 17.5667C6.86798 17.7833 6.58463 17.95 6.29296 18.0667C6.20129 18.1083 6.10964 18.1417 6.01797 18.175C5.69297 18.2833 5.34297 18.3333 5.0013 18.3333C4.7763 18.3333 4.55131 18.3083 4.33465 18.2667C4.22631 18.2417 4.11797 18.2167 4.00963 18.1833C3.8763 18.1417 3.75131 18.1 3.62631 18.0417C3.62631 18.0333 3.6263 18.0333 3.61797 18.0417C3.38463 17.925 3.15964 17.7917 2.95131 17.6333L2.94297 17.625C2.83463 17.5417 2.73465 17.4583 2.64298 17.3583C2.55131 17.2583 2.45963 17.1583 2.36797 17.05C2.20963 16.8417 2.07631 16.6167 1.95964 16.3833C1.96797 16.375 1.96797 16.375 1.95964 16.375C1.95964 16.375 1.95963 16.3667 1.9513 16.3583C1.9013 16.2417 1.85963 16.1167 1.81796 15.9917C1.78463 15.8833 1.75962 15.775 1.73462 15.6667C1.69296 15.45 1.66797 15.225 1.66797 15V3.74999C1.66797 2.49999 2.5013 1.66666 3.7513 1.66666H6.2513C7.5013 1.66666 8.33464 2.49999 8.33464 3.74999Z" stroke="#6D7A87" stroke-width="1.25" stroke-linecap="round" stroke-linejoin="round"/>
<path d="M18.3333 13.75V16.25C18.3333 17.5 17.5 18.3333 16.25 18.3333H5C5.34167 18.3333 5.69167 18.2833 6.01667 18.175C6.10833 18.1417 6.19999 18.1083 6.29166 18.0667C6.58332 17.95 6.86667 17.7833 7.11667 17.5667C7.19167 17.5083 7.27501 17.4333 7.35001 17.3583L7.38332 17.325L13.05 11.6667H16.25C17.5 11.6667 18.3333 12.5 18.3333 13.75Z" stroke="#6D7A87" stroke-width="1.25" stroke-linecap="round" stroke-linejoin="round"/>
<path d="M4.00808 18.1833C3.50808 18.0333 3.03309 17.7583 2.64142 17.3583C2.24142 16.9667 1.96641 16.4917 1.81641 15.9917C2.14141 17.0333 2.96641 17.8583 4.00808 18.1833Z" stroke="#6D7A87" stroke-width="1.25" stroke-linecap="round" stroke-linejoin="round"/>
<path d="M15.3078 9.40833L13.0495 11.6667L7.38281 17.325C7.96615 16.725 8.33282 15.9 8.33282 15V6.95L10.5912 4.69167C11.4745 3.80834 12.6578 3.80834 13.5412 4.69167L15.3078 6.45834C16.1912 7.34167 16.1912 8.525 15.3078 9.40833Z" stroke="#6D7A87" stroke-width="1.25" stroke-linecap="round" stroke-linejoin="round"/>
<path d="M5.0013 15.8333C5.46154 15.8333 5.83464 15.4602 5.83464 15C5.83464 14.5398 5.46154 14.1667 5.0013 14.1667C4.54106 14.1667 4.16797 14.5398 4.16797 15C4.16797 15.4602 4.54106 15.8333 5.0013 15.8333Z" stroke="#6D7A87" stroke-width="1.5" stroke-linecap="round" stroke-linejoin="round"/>
</svg>
