<svg width="15" height="15" viewBox="0 0 15 15" fill="none" xmlns="http://www.w3.org/2000/svg">
<g clip-path="url(#clip0_444_58882)">
<path d="M7.07812 14.2781C7.07812 14.5111 7.26701 14.7 7.5 14.7C7.73299 14.7 7.92188 14.5111 7.92188 14.2781V9.29996H7.07812V14.2781Z" fill="white"/>
<path d="M0.722656 1.14371H2.91331C3.10065 1.87153 3.76134 2.40933 4.54766 2.40933V3.67496H10.4539V2.40933C11.2402 2.40933 11.9009 1.87153 12.0883 1.14371H14.2789C14.5119 1.14371 14.7008 0.95482 14.7008 0.721832C14.7008 0.488845 14.5119 0.299957 14.2789 0.299957H0.722656C0.489669 0.299957 0.300781 0.488845 0.300781 0.721832C0.300781 0.95482 0.489669 1.14371 0.722656 1.14371Z" fill="white"/>
<path d="M14.2781 12.7312H9.1875C8.95451 12.7312 8.76562 12.9201 8.76562 13.1531V14.2781C8.76562 14.5111 8.95451 14.7 9.1875 14.7H14.2781C14.5111 14.7 14.7 14.5111 14.7 14.2781V13.1531C14.7 12.9201 14.5111 12.7312 14.2781 12.7312Z" fill="white"/>
<path d="M5.81328 12.7312H0.722656C0.489669 12.7312 0.300781 12.9201 0.300781 13.1531V14.2781C0.300781 14.5111 0.489669 14.7 0.722656 14.7H5.81328C6.04627 14.7 6.23516 14.5111 6.23516 14.2781V13.1531C6.23516 12.9201 6.04627 12.7312 5.81328 12.7312Z" fill="white"/>
<path d="M9.94675 9.80928L10.7422 9.01379C10.907 8.84904 10.907 8.58193 10.7422 8.41718C10.5775 8.25242 10.3104 8.25242 10.1456 8.41718L9.35013 9.21266C9.18537 9.37742 9.18537 9.64452 9.35013 9.80928C9.51489 9.97404 9.78199 9.97404 9.94675 9.80928Z" fill="white"/>
<path d="M10.3125 11.325H11.4375C11.6705 11.325 11.8594 11.1361 11.8594 10.9031C11.8594 10.6701 11.6705 10.4812 11.4375 10.4812H10.3125C10.0795 10.4812 9.89062 10.6701 9.89062 10.9031C9.89062 11.1361 10.0795 11.325 10.3125 11.325Z" fill="white"/>
<path d="M5.65239 9.80928C5.81715 9.64452 5.81715 9.37742 5.65239 9.21266L4.8569 8.41718C4.69215 8.25242 4.42504 8.25242 4.26029 8.41718C4.09553 8.58193 4.09553 8.84904 4.26029 9.01379L5.05577 9.80928C5.22053 9.97404 5.48763 9.97404 5.65239 9.80928Z" fill="white"/>
<path d="M4.6875 10.4812H3.5625C3.32951 10.4812 3.14062 10.6701 3.14062 10.9031C3.14062 11.1361 3.32951 11.325 3.5625 11.325H4.6875C4.92049 11.325 5.10938 11.1361 5.10938 10.9031C5.10938 10.6701 4.92049 10.4812 4.6875 10.4812Z" fill="white"/>
<path d="M9.04688 8.03433V6.76871H5.95312V8.03433C5.95312 8.26732 6.14201 8.45621 6.375 8.45621H8.625C8.85799 8.45621 9.04688 8.26732 9.04688 8.03433Z" fill="white"/>
<path d="M10.2645 4.51871H4.73438L5.61328 5.92496H9.38563L10.2645 4.51871Z" fill="white"/>
</g>
<defs>
<clipPath id="clip0_444_58882">
<rect width="14.4" height="14.4" fill="white" transform="translate(0.300781 0.300018)"/>
</clipPath>
</defs>
</svg>
