<svg width="20" height="20" viewBox="0 0 20 20" fill="none" xmlns="http://www.w3.org/2000/svg">
<path d="M3.32603 12.217L2.05937 10.9504C1.54271 10.4337 1.54271 9.58368 2.05937 9.06701L3.32603 7.80033C3.5427 7.58366 3.7177 7.15866 3.7177 6.85866V5.06697C3.7177 4.33364 4.31771 3.73366 5.05104 3.73366H6.8427C7.1427 3.73366 7.5677 3.55869 7.78437 3.34202L9.05103 2.07534C9.5677 1.55867 10.4177 1.55867 10.9344 2.07534L12.2011 3.34202C12.4177 3.55869 12.8427 3.73366 13.1427 3.73366H14.9344C15.6677 3.73366 16.2677 4.33364 16.2677 5.06697V6.85866C16.2677 7.15866 16.4427 7.58366 16.6594 7.80033L17.926 9.06701C18.4427 9.58368 18.4427 10.4337 17.926 10.9504L16.6594 12.217C16.4427 12.4337 16.2677 12.8587 16.2677 13.1587V14.9503C16.2677 15.6836 15.6677 16.2837 14.9344 16.2837H13.1427C12.8427 16.2837 12.4177 16.4587 12.2011 16.6754L10.9344 17.942C10.4177 18.4587 9.5677 18.4587 9.05103 17.942L7.78437 16.6754C7.5677 16.4587 7.1427 16.2837 6.8427 16.2837H5.05104C4.31771 16.2837 3.7177 15.6836 3.7177 14.9503V13.1587C3.7177 12.8504 3.5427 12.4254 3.32603 12.217Z" stroke="#6D7A87" stroke-width="1.25" stroke-linecap="round" stroke-linejoin="round"/>
<path d="M7.5 12.5L12.5 7.5" stroke="#6D7A87" stroke-width="1.25" stroke-linecap="round" stroke-linejoin="round"/>
<path d="M12.0801 12.0833H12.0875" stroke="#6D7A87" stroke-width="1.25" stroke-linecap="round" stroke-linejoin="round"/>
<path d="M7.91209 7.91667H7.91957" stroke="#495969" stroke-width="1.25" stroke-linecap="round" stroke-linejoin="round"/>
</svg>
