<svg width="20" height="20" viewBox="0 0 20 20" fill="none" xmlns="http://www.w3.org/2000/svg">
<path d="M7.22656 11.9415C7.22656 13.0165 8.05156 13.8832 9.07656 13.8832H11.1682C12.0599 13.8832 12.7849 13.1249 12.7849 12.1915C12.7849 11.1749 12.3432 10.8165 11.6849 10.5832L8.32656 9.41655C7.66823 9.18321 7.22656 8.82488 7.22656 7.80821C7.22656 6.87488 7.95156 6.11655 8.84323 6.11655H10.9349C11.9599 6.11655 12.7849 6.98321 12.7849 8.05821" stroke="#6D7A87" stroke-width="1.25" stroke-linecap="round" stroke-linejoin="round"/>
<path d="M10 5V15" stroke="#6D7A87" stroke-width="1.25" stroke-linecap="round" stroke-linejoin="round"/>
<path d="M10.0013 18.3333C14.6037 18.3333 18.3346 14.6024 18.3346 9.99999C18.3346 5.39762 14.6037 1.66666 10.0013 1.66666C5.39893 1.66666 1.66797 5.39762 1.66797 9.99999C1.66797 14.6024 5.39893 18.3333 10.0013 18.3333Z" stroke="#6D7A87" stroke-width="1.25" stroke-linecap="round" stroke-linejoin="round"/>
</svg>
