<svg width="36" height="36" viewBox="0 0 36 36" fill="none" xmlns="http://www.w3.org/2000/svg">
<path d="M11.7148 3.75H24.2852C26.8659 3.75003 28.8354 4.51645 30.1572 5.83984C31.4789 7.16322 32.2424 9.13254 32.2354 11.7129V24.2852C32.2353 26.8659 31.4684 28.8362 30.1445 30.1602C28.8206 31.4839 26.8502 32.25 24.2695 32.25H11.7148C9.13416 32.25 7.16464 31.4836 5.84082 30.1582C4.51687 28.8326 3.75 26.8584 3.75 24.2695V11.7148C3.75003 9.13407 4.51593 7.16375 5.83984 5.83984C7.16375 4.51593 9.13407 3.75003 11.7148 3.75ZM15.9248 12.3701L9.23438 19.0596C8.9364 19.3504 8.6807 19.7337 8.48828 20.1143C8.29362 20.4993 8.1378 20.934 8.07812 21.3418L8.07715 21.3447L7.55371 25.0283C7.40418 26.0193 7.65992 26.991 8.34961 27.6807C8.91578 28.2468 9.68713 28.5146 10.4697 28.5146C10.6533 28.5146 10.8301 28.4947 10.958 28.4805L10.9697 28.4795L10.9805 28.4775L14.6709 27.9521H14.6758C15.0796 27.8916 15.5147 27.7292 15.8965 27.5352C16.278 27.3412 16.664 27.0855 16.9531 26.7969L23.6738 20.1221L24.5381 19.2637L23.3818 18.8789C23.1066 18.7872 22.825 18.666 22.4834 18.5176C22.1569 18.3543 21.8606 18.2058 21.5957 18.0469L21.5791 18.0361L21.5605 18.0273L21.4062 17.9395C21.2517 17.8466 21.0941 17.7373 20.9248 17.6104L20.9141 17.6016L20.9023 17.5938L20.623 17.3867C20.5223 17.3086 20.4143 17.2213 20.2988 17.1289L20.2598 17.0977C20.2525 17.0906 20.243 17.0827 20.2324 17.0723C20.2134 17.0535 20.1917 17.0315 20.165 17.0049L20.1426 16.9814L20.1172 16.9609L19.8486 16.7256C19.5734 16.4743 19.2832 16.1783 19.0264 15.8701L19.0039 15.8438L18.9922 15.832C18.9889 15.8282 18.9822 15.8207 18.9727 15.8086C18.9534 15.7842 18.9275 15.7488 18.8955 15.7041L18.8721 15.6719L18.8457 15.6416L18.6543 15.4102C18.5817 15.3166 18.5043 15.2103 18.4346 15.1025L18.4209 15.0811L18.4053 15.0596L18.208 14.7822C18.1391 14.6796 18.0688 14.5686 18.002 14.4551L17.998 14.4492L17.8789 14.2412C17.7627 14.0308 17.6508 13.8053 17.542 13.5771C17.3886 13.2424 17.2766 12.9488 17.1562 12.6328L16.7432 11.5508L15.9248 12.3701ZM22.7461 7.5166C21.363 7.50958 20.0677 8.21157 18.8496 9.42969L17.4551 10.8242L17.4561 10.8252C17.1189 11.1467 17.0366 11.6165 17.1416 12.002L17.1436 12.0107C18.0824 15.2967 20.6969 17.9161 23.9795 18.8633C24.0933 18.9018 24.189 18.9091 24.2148 18.9111C24.2724 18.9155 24.3273 18.915 24.3447 18.915C24.6501 18.915 24.9653 18.8002 25.2051 18.5605L25.208 18.5576L26.5879 17.1621L26.5869 17.1611C27.7983 15.9488 28.4958 14.6955 28.5146 13.3457V13.335C28.5146 11.9236 27.8198 10.649 26.6006 9.42969C25.4078 8.23691 24.127 7.52375 22.7461 7.5166Z" fill="#495969" stroke="#3A4754" stroke-width="1.5"/>
</svg>
