<svg width="32" height="32" viewBox="0 0 32 32" fill="none" xmlns="http://www.w3.org/2000/svg">
<path d="M22.707 3.00049H26.627C27.3401 3.00054 27.8314 3.21088 28.1436 3.52295C28.4558 3.83515 28.667 4.32709 28.667 5.04053V8.96045C28.6669 9.67373 28.4557 10.1649 28.1436 10.4771C27.8314 10.7892 27.3402 11.0004 26.627 11.0005H22.707C21.9936 11.0005 21.5017 10.7893 21.1895 10.4771C20.8774 10.1649 20.667 9.67361 20.667 8.96045V5.04053C20.667 4.32709 20.8772 3.83515 21.1895 3.52295C21.5017 3.21075 21.9936 3.00049 22.707 3.00049ZM24.5068 3.01904C24.3981 3.02903 24.2943 3.05315 24.1924 3.09131C24.182 3.09407 24.1685 3.0986 24.1543 3.10303C24.1312 3.11024 24.1029 3.12186 24.0703 3.13623V3.13428C23.9393 3.19044 23.7595 3.28395 23.6084 3.43506L21.9424 5.10205C21.362 5.6824 21.362 6.63791 21.9424 7.21826C22.273 7.5487 22.7249 7.6901 23.1602 7.64404V9.49365C23.1602 10.3284 23.8322 11.0005 24.667 11.0005C25.5016 11.0003 26.1728 10.3283 26.1729 9.49365V7.64404C26.2262 7.64973 26.2797 7.6538 26.333 7.65381C26.7071 7.65381 27.0889 7.51372 27.3809 7.22705L27.3818 7.22803C27.3851 7.22486 27.3883 7.22146 27.3916 7.21826L27.3906 7.21729C27.9857 6.63556 27.9831 5.68084 27.4043 5.10205L25.7383 3.43506L25.543 3.23975H25.4854C25.4144 3.19369 25.3401 3.15378 25.2627 3.12061L25.1367 3.06689H25.0869C24.9566 3.02822 24.8321 3.01321 24.707 3.01318H24.627L24.5068 3.01904ZM25.6943 3.40576C25.7014 3.41212 25.7074 3.41888 25.7109 3.42236C25.7015 3.41289 25.6913 3.40417 25.6816 3.39502C25.6869 3.39949 25.6915 3.40317 25.6943 3.40576Z" fill="#3A4754" stroke="#3A4754" stroke-width="1.33333"/>
<path d="M12.3337 21.9995C12.3337 22.9144 11.5816 23.6665 10.6667 23.6665H7.99976C7.08505 23.6663 6.33374 22.9143 6.33374 21.9995C6.33392 21.0849 7.08516 20.3337 7.99976 20.3335H10.6667C11.5815 20.3335 12.3336 21.0848 12.3337 21.9995ZM12.3337 21.9995C12.3339 21.0849 13.0852 20.3337 13.9998 20.3335H19.3337C20.2483 20.3337 20.9996 21.0849 20.9998 21.9995C20.9998 22.9143 20.2484 23.6663 19.3337 23.6665H13.9998C13.085 23.6663 12.3337 22.9143 12.3337 21.9995ZM4.28003 14.3335H27.7205C28.2454 14.3337 28.6667 14.7548 28.6667 15.2798V21.9331C28.6667 24.6181 26.4855 26.8 23.8005 26.8003H8.18628C5.50144 26.8 3.33389 24.6316 3.33374 21.9468V15.2798C3.33377 14.7547 3.75493 14.3335 4.28003 14.3335Z" fill="#3A4754" stroke="#3A4754" stroke-width="1.33333"/>
<path d="M8.18628 5.2002H16.3865C16.9116 5.2002 17.3337 5.62137 17.3337 6.14648V10.0527C17.3337 10.5779 16.9116 11 16.3865 11H4.28003C3.76107 11 3.3367 10.5726 3.33374 10.0322C3.34557 8.70196 3.87423 7.49564 4.75171 6.61816C5.63034 5.73953 6.84852 5.20032 8.18628 5.2002Z" fill="#3A4754" stroke="#3A4754" stroke-width="1.33333"/>
</svg>
