<svg width="24" height="25" viewBox="0 0 24 25" fill="none" xmlns="http://www.w3.org/2000/svg">
<path d="M19.5383 13.395C19.6529 13.0189 20.1648 12.9142 20.4231 13.2524H20.4241C21.2037 14.3347 21.6077 15.709 21.4241 17.188V17.189C21.1221 19.6214 19.1212 21.6225 16.6887 21.9243C15.2092 22.1081 13.836 21.7041 12.7659 20.9175L12.7649 20.9165C12.415 20.6604 12.5154 20.1454 12.9036 20.0288H12.9045C16.0757 19.0701 18.57 16.564 19.5383 13.396V13.395Z" fill="#3A4754" stroke="#3A4754"/>
<path d="M9.99023 3C13.9937 3.00012 17.2608 6.14883 17.4697 10.1055L17.4805 10.4912C17.4798 14.6244 14.1236 17.9803 9.99023 17.9805C5.85646 17.9805 2.50013 14.624 2.5 10.4902C2.5 6.35638 5.85638 3 9.99023 3ZM10 5.66016C9.46637 5.66016 9.00708 6.0012 8.8291 6.47559C7.64748 6.64318 6.75004 7.69147 6.75 8.91992C6.75 9.47066 6.87525 9.96794 7.16211 10.3799C7.25815 10.5178 7.3705 10.6393 7.49414 10.749C7.05755 10.9447 6.75014 11.3834 6.75 11.8896C6.75 13.1636 7.6304 14.2223 8.81055 14.4727C8.97359 14.9739 9.4471 15.3398 10 15.3398C10.5374 15.3398 10.9976 14.9933 11.1729 14.5137C12.3534 14.3452 13.2498 13.298 13.25 12.0703C13.25 11.5257 13.128 11.0312 12.8428 10.6191C12.7469 10.4807 12.6348 10.3577 12.5107 10.2471C12.9444 10.0502 13.2499 9.61442 13.25 9.11035C13.25 7.83601 12.3692 6.77625 11.1885 6.52637C11.0251 6.02575 10.5525 5.66016 10 5.66016ZM10.6367 12.04H9.33008C9.32744 12.04 9.31359 12.0397 9.29297 12.0166C9.27162 11.9927 9.25 11.9493 9.25 11.8896C9.24997 11.7677 9.23142 11.6498 9.19824 11.5381L10.6367 12.04ZM10.6699 8.95996C10.6726 8.95996 10.6864 8.96033 10.707 8.9834C10.7284 9.00732 10.75 9.05068 10.75 9.11035C10.75 9.22767 10.7671 9.34126 10.7979 9.44922L9.39355 8.95996H10.6699Z" fill="#3A4754" stroke="#3A4754"/>
</svg>
