<svg width="36" height="36" viewBox="0 0 36 36" fill="none" xmlns="http://www.w3.org/2000/svg">
<path d="M10.4307 9.3673C10.446 9.38277 10.4565 9.40075 10.4609 9.41613C10.4646 9.42892 10.4642 9.43937 10.4609 9.45129C10.3731 9.76522 10.2886 10.0915 10.207 10.4288L10.2061 10.4337L8.73633 16.7189V16.7198C7.88991 20.3443 8.0462 23.3187 9.47559 25.6271C10.9049 27.9352 13.499 29.403 17.123 30.2648L17.127 30.2657L17.6387 30.3849L16.4619 30.7726C13.5566 31.7086 11.5239 31.7204 10.0186 30.9503C8.60628 30.2277 7.4785 28.7252 6.56445 26.1437L6.38477 25.6134L4.46484 19.6886C3.5275 16.7808 3.51176 14.7424 4.2793 13.2345C5.04635 11.7276 6.69979 10.5457 9.60645 9.60851L9.6123 9.60656L10.3984 9.34679L10.4004 9.34582C10.4041 9.34696 10.416 9.35248 10.4307 9.3673Z" fill="#495969" stroke="#3A4754" stroke-width="1.5"/>
<path d="M17.3994 4.843C18.7976 4.36055 20.6335 4.38129 23.0771 4.95921V4.96019H23.0801L25.584 5.54515C28.6542 6.26325 30.4679 7.34122 31.3936 8.83324C32.3191 10.3252 32.4778 12.4259 31.7598 15.4885L30.29 21.759V21.76C29.6753 24.402 28.7885 26.1202 27.6006 27.1369C26.4379 28.1319 24.8715 28.5506 22.6621 28.3381L22.6504 28.3371L22.1094 28.2815C21.5561 28.2123 20.965 28.1032 20.3359 27.9514L20.334 27.9504L17.8145 27.3508L17.8135 27.3498C14.7576 26.6243 12.9468 25.5472 12.0205 24.0559C11.0949 22.5654 10.9326 20.4681 11.6504 17.4065V17.4055L13.1201 11.1213C13.4128 9.87752 13.7568 8.82668 14.1729 7.9807L14.1758 7.97679C14.9866 6.29972 16.036 5.31353 17.3994 4.843ZM17.9268 16.7922C16.9344 16.5444 15.9052 17.137 15.6523 18.1477C15.4042 19.1403 15.9978 20.1703 17.0088 20.4231V20.4221L21.3701 21.5315L21.4092 21.5422L21.4492 21.5471C21.5248 21.5579 21.6825 21.5851 21.8398 21.5852C22.6802 21.5852 23.4356 21.0353 23.6602 20.1868L23.6631 20.177C23.9126 19.1791 23.3125 18.1515 22.2881 17.9016H22.2871L17.9297 16.7932L17.9268 16.7922ZM19.4121 10.9875C18.4195 10.7394 17.3905 11.332 17.1377 12.343C16.8897 13.3349 17.4816 14.3627 18.4912 14.6164V14.6174L25.7656 16.4621L25.8047 16.4719L25.8438 16.4778C25.9194 16.4886 26.0779 16.5149 26.2354 16.5149C27.0756 16.5148 27.8311 15.9649 28.0557 15.1164L28.0576 15.1096L28.0586 15.1028C28.3003 14.1118 27.726 13.074 26.6885 12.8332H26.6895L19.415 10.9875H19.4121Z" fill="#3A4754" stroke="#3A4754" stroke-width="1.5"/>
</svg>
