<?xml version="1.0" encoding="UTF-8"?>
<svg id="Layer_1" data-name="Layer 1" xmlns="http://www.w3.org/2000/svg" viewBox="0 0 256 256">
  <circle cx="128" cy="128" r="128" fill="#008a9a"/>
  <path d="M155.12,52.94c-5.69,1.19-10.43,4.64-13.55,9.52-2.65,4.14-3.91,8.78-2.85,13.65,1.42,6.51,4.1,9.24-.03,15.77-2.67,4.23-7.07,7.85-10.61,11.37l-16.2,16.12-12.21,12.26c-2.22,2.23-4.39,4.69-6.81,6.7-1.54,1.28-3.33,2.38-5.31,2.79-3.92.81-7.22-1.02-10.89-1.95-8.05-2.04-15.4,1.75-20.42,7.92-3.38,4.9-4.94,10.54-3.85,16.47,1.04,5.68,4.5,10.61,9.25,13.86,3.57,2.44,12.81,3.13,13.5,3.81.33.32.54,1.06.63,1.5.38,1.81.32,3.72.61,5.55.84,5.13,4.12,9.29,8.31,12.19,4.51,3.12,9.92,4.15,15.29,3.13,5.43-1.03,10.49-4.13,13.57-8.77,2.81-4.22,4.13-10.09,3.09-15.07-1.13-5.43-3.24-9.6.12-14.84,2.86-4.46,8.09-8.73,11.9-12.54l19.7-19.77,9.3-9.31c1.67-1.68,3.27-3.54,5.12-5.03,1.76-1.42,3.81-2.53,6.04-2.98,3.79-.76,6.8.72,10.39,1.51,8.42,1.87,15.54-1.76,20.56-8.42,3.19-5.35,4.64-11.22,3.11-17.4-.08-.33-.17-.65-.27-.98-.1-.32-.2-.64-.32-.96-.11-.32-.23-.63-.36-.95-.13-.31-.27-.62-.41-.93-.14-.31-.3-.61-.46-.9-.16-.3-.33-.59-.5-.88-.17-.29-.36-.57-.54-.85-.19-.28-.38-.56-.58-.83-.2-.27-.41-.54-.62-.8-.21-.26-.44-.52-.66-.77-.23-.25-.46-.49-.7-.73-.24-.24-.48-.47-.74-.7-.25-.23-.51-.44-.77-.66-.26-.21-.53-.42-.8-.62-.27-.2-.55-.39-.83-.58-.28-.18-.57-.36-.86-.53-2.69-1.6-10.78-2.78-11.4-3.32-.52-.45-.79-1.24-.94-1.89-.45-1.91-.55-3.89-1.02-5.8-1.15-4.68-4.46-8.8-8.45-11.42-4.81-3.16-10.91-4.13-16.51-2.96Z" fill="#fff"/>
</svg>