<svg width="32" height="32" viewBox="0 0 32 32" fill="none" xmlns="http://www.w3.org/2000/svg">
<path d="M10.4136 3.3335H21.5864C23.8805 3.3335 25.6311 4.01454 26.8062 5.19092C27.981 6.36726 28.6591 8.11796 28.6528 10.4116V21.5864C28.6528 23.8803 27.972 25.6313 26.7954 26.8081C25.6186 27.9849 23.8668 28.6665 21.5728 28.6665H10.4136C8.11964 28.6665 6.36864 27.9852 5.19189 26.8071C4.01505 25.6288 3.3335 23.874 3.3335 21.5728V10.4136C3.3335 8.11949 4.01408 6.36775 5.19092 5.19092C6.36775 4.01408 8.11949 3.3335 10.4136 3.3335ZM9.17334 19.7729C8.25848 19.7729 7.50635 20.5251 7.50635 21.4399V24.1997C7.50635 25.1146 8.25848 25.8667 9.17334 25.8667C10.0881 25.8666 10.8394 25.1145 10.8394 24.1997V21.4399C10.8394 20.5251 10.0881 19.773 9.17334 19.7729ZM15.9995 16.9995C15.0848 16.9997 14.3335 17.7518 14.3335 18.6665V24.1997C14.3335 25.1145 15.0848 25.8665 15.9995 25.8667C16.9144 25.8667 17.6665 25.1146 17.6665 24.1997V18.6665C17.6665 17.7516 16.9144 16.9995 15.9995 16.9995ZM22.8267 14.2397C21.9118 14.2397 21.1597 14.9919 21.1597 15.9067V24.1997C21.1597 25.1146 21.9118 25.8667 22.8267 25.8667C23.7414 25.8666 24.4937 25.1145 24.4937 24.1997V15.9067C24.4937 14.9919 23.7414 14.2398 22.8267 14.2397ZM18.9331 6.11963C18.0183 6.11966 17.2661 6.87179 17.2661 7.78662C17.2662 8.7014 18.0183 9.45358 18.9331 9.45361H18.9692C16.1896 12.0092 12.8613 13.8595 9.18018 14.8472L8.77197 14.9526C7.8632 15.1761 7.33171 16.089 7.55322 16.9751L7.55518 16.9839C7.75135 17.7249 8.41267 18.2397 9.17334 18.2397C9.23303 18.2398 9.39443 18.2411 9.57373 18.1909L9.57471 18.1938C13.9462 17.104 17.9002 14.9593 21.1821 11.9517C21.3079 12.7453 21.9998 13.3599 22.8267 13.3599C23.5049 13.3598 24.093 12.9464 24.3521 12.3599H24.5063V7.78662C24.5063 7.72943 24.4995 7.67943 24.4907 7.63916C24.4888 7.63057 24.4849 7.62266 24.4829 7.61475C24.476 7.56004 24.4685 7.51368 24.4604 7.47998C24.4543 7.45437 24.4465 7.42658 24.4438 7.4165C24.4419 7.40917 24.4404 7.40475 24.4399 7.40283C24.4399 7.40283 24.4404 7.40139 24.4399 7.39893C24.4395 7.39617 24.4389 7.39232 24.438 7.38623C24.4368 7.37823 24.4326 7.35064 24.4282 7.32568C24.421 7.28479 24.4049 7.22435 24.3784 7.15283C24.3413 7.03424 24.2871 6.94746 24.2524 6.89893C24.2333 6.87206 24.2149 6.84818 24.2056 6.83643C24.1935 6.82117 24.1893 6.81735 24.186 6.81299C24.1481 6.76246 24.0827 6.6726 23.9917 6.58154L23.7964 6.38623H23.7134C23.6599 6.35407 23.7132 6.38495 23.6274 6.33252C23.5831 6.3054 23.517 6.26704 23.4341 6.23389C23.3303 6.1924 23.2377 6.17635 23.1851 6.16846C23.1638 6.16528 23.1329 6.16139 23.1274 6.16064C23.1227 6.15999 23.1195 6.15994 23.1177 6.15967L23.0522 6.14697H23.0483C23.0375 6.1443 23.0257 6.14078 23.0132 6.13818C22.9689 6.12903 22.9091 6.11963 22.8394 6.11963H18.9331ZM23.9995 6.59814C24.0125 6.61226 24.0228 6.62582 24.0317 6.63721C24.0227 6.62504 24.0117 6.61231 23.9995 6.59814Z" fill="#3A4754" stroke="#3A4754" stroke-width="1.33333"/>
</svg>
