<svg width="32" height="32" viewBox="0 0 32 32" fill="none" xmlns="http://www.w3.org/2000/svg">
<path d="M12.4656 3.77686C13.1242 3.37476 13.9191 3.23791 14.99 3.42041L12.2683 9.75928H9.49292C9.32474 9.75928 9.15642 9.76457 8.98804 9.77295L9.87573 7.64404L9.92944 7.52393L9.93726 7.50537L9.94409 7.48682L10.0242 7.27393C10.0321 7.25491 10.0395 7.23743 10.0457 7.22217C10.0555 7.19769 10.0626 7.18198 10.0691 7.1665C10.0821 7.13524 10.0832 7.1342 10.0779 7.14307L10.1013 7.104L10.1189 7.06396C10.876 5.30818 11.627 4.28881 12.4656 3.77686Z" fill="#3A4754" stroke="#3A4754" stroke-width="1.33333"/>
<path d="M20.4746 5.44092L20.4785 5.44189C22.0799 6.10591 23.1029 6.75999 23.7061 7.48389C23.8168 7.63183 23.9053 7.75478 23.9922 7.896L23.999 7.90674C24.0955 8.05681 24.1527 8.17942 24.1826 8.2915L24.1963 8.34229L24.2178 8.39014C24.2613 8.48818 24.2825 8.55055 24.2959 8.61084L24.3008 8.6333L24.3076 8.65479C24.4201 9.03731 24.4609 9.46984 24.4219 9.9585C23.7932 9.82825 23.1547 9.76025 22.5068 9.76025H15.1729L17.5586 4.21338L20.4746 5.44092Z" fill="#3A4754" stroke="#3A4754" stroke-width="1.33333"/>
<mask id="path-3-inside-1_1_3949" fill="white">
<path d="M16.6934 23.5468H17.0267C17.4267 23.5468 17.76 23.1868 17.76 22.7468C17.76 22.1868 17.6 22.1068 17.2534 21.9734L16.6934 21.7734V23.5468Z"/>
</mask>
<path d="M16.6934 23.5468H17.0267C17.4267 23.5468 17.76 23.1868 17.76 22.7468C17.76 22.1868 17.6 22.1068 17.2534 21.9734L16.6934 21.7734V23.5468Z" fill="#3A4754"/>
<path d="M16.6934 23.5468H15.36V24.8801H16.6934V23.5468ZM17.2534 21.9734L17.732 20.729L17.717 20.7232L17.7018 20.7178L17.2534 21.9734ZM16.6934 21.7734L17.1418 20.5178L15.36 19.8814V21.7734H16.6934ZM16.6934 23.5468V24.8801H17.0267V23.5468V22.2134H16.6934V23.5468ZM17.0267 23.5468V24.8801C18.2662 24.8801 19.0934 23.8156 19.0934 22.7468H17.76H16.4267C16.4267 22.6287 16.4715 22.5076 16.5619 22.4093C16.6528 22.3105 16.8138 22.2134 17.0267 22.2134V23.5468ZM17.76 22.7468H19.0934C19.0934 22.3951 19.0562 21.8514 18.6874 21.3792C18.3396 20.934 17.8418 20.7712 17.732 20.729L17.2534 21.9734L16.7747 23.2179C16.8686 23.254 16.8632 23.2549 16.8371 23.2405C16.7937 23.2167 16.6868 23.15 16.586 23.021C16.4841 22.8906 16.4443 22.7684 16.4305 22.7087C16.4196 22.6616 16.4267 22.6611 16.4267 22.7468H17.76ZM17.2534 21.9734L17.7018 20.7178L17.1418 20.5178L16.6934 21.7734L16.2449 23.0291L16.8049 23.2291L17.2534 21.9734ZM16.6934 21.7734H15.36V23.5468H16.6934H18.0267V21.7734H16.6934Z" fill="#3A4754" mask="url(#path-3-inside-1_1_3949)"/>
<path d="M24.3866 12.6929C23.7866 12.5196 23.1599 12.4263 22.5066 12.4263H9.49324C8.58657 12.4263 7.73324 12.5996 6.93324 12.9463C4.61324 13.9463 2.98657 16.2529 2.98657 18.9329V21.5329C2.98657 21.8529 3.01324 22.1596 3.05324 22.4796C3.34657 26.7196 5.61324 28.9863 9.85324 29.2663C10.1599 29.3063 10.4666 29.3329 10.7999 29.3329H21.1999C26.1332 29.3329 28.7332 26.9863 28.9866 22.3196C28.9999 22.0663 29.0132 21.7996 29.0132 21.5329V18.9329C29.0132 15.9863 27.0532 13.5063 24.3866 12.6929ZM17.7066 20.6663C18.3199 20.8796 19.1466 21.3329 19.1466 22.7463C19.1466 23.9596 18.1999 24.9329 17.0266 24.9329H16.6932V25.2263C16.6932 25.6129 16.3866 25.9196 15.9999 25.9196C15.6132 25.9196 15.3066 25.6129 15.3066 25.2263V24.9329H15.1866C13.9066 24.9329 12.8532 23.8529 12.8532 22.5196C12.8532 22.1329 13.1599 21.8263 13.5466 21.8263C13.9332 21.8263 14.2399 22.1329 14.2399 22.5196C14.2399 23.0796 14.6666 23.5463 15.1866 23.5463H15.3066V21.2929L14.2932 20.9329C13.6799 20.7196 12.8532 20.2663 12.8532 18.8529C12.8532 17.6396 13.7999 16.6663 14.9732 16.6663H15.3066V16.3729C15.3066 15.9863 15.6132 15.6796 15.9999 15.6796C16.3866 15.6796 16.6932 15.9863 16.6932 16.3729V16.6663H16.8132C18.0932 16.6663 19.1466 17.7463 19.1466 19.0796C19.1466 19.4663 18.8399 19.7729 18.4532 19.7729C18.0666 19.7729 17.7599 19.4663 17.7599 19.0796C17.7599 18.5196 17.3332 18.0529 16.8132 18.0529H16.6932V20.3063L17.7066 20.6663Z" fill="#3A4754"/>
<path d="M14.24 18.8532C14.24 19.4132 14.4 19.4932 14.7467 19.6266L15.3067 19.8266V18.0532H14.9733C14.56 18.0532 14.24 18.4132 14.24 18.8532Z" fill="#3A4754"/>
</svg>
